<svg id="Layer_1" data-name="Layer 1" xmlns="http://www.w3.org/2000/svg" viewBox="0 0 216 216"><defs><style>.cls-1{fill:#e8d587;}.cls-1,.cls-2,.cls-3,.cls-4,.cls-5,.cls-6{stroke:#231f20;stroke-miterlimit:10;stroke-width:2px;}.cls-2{fill:#c08d3f;}.cls-3{fill:#539074;}.cls-4{fill:#e56b45;}.cls-5{fill:#231f20;}.cls-6{fill:#fee4d2;}</style></defs><title>Artboard 2</title><polygon class="cls-1" points="137.14 30.95 142.32 45.96 166.15 114.96 170.14 126.51 173.13 135.17 182.68 162.82 192.74 191.95 90.24 152 60.84 140.54 48.83 135.86 34.03 130.09 137.14 30.95"/><rect class="cls-2" x="7.3" y="66.1" width="156.58" height="28.83" rx="9.91" ry="9.91" transform="translate(-31.92 81.8) rotate(-43.88)"/><rect class="cls-3" x="92.98" y="101.68" width="11.23" height="20.91" transform="matrix(1, 0.02, -0.02, 1, 2.21, -1.91)"/><polygon class="cls-3" points="166.15 114.96 170.14 126.51 157.06 125.56 157.88 114.36 166.15 114.96"/><circle class="cls-4" cx="130.6" cy="101.32" r="16.04"/><path class="cls-4" d="M173.13,135.17l9.55,27.65a16,16,0,1,1-9.55-27.65Z"/><path class="cls-4" d="M88.13,132.49A16,16,0,0,1,90.24,152L60.83,140.54a16,16,0,0,1,27.3-8Z"/><path class="cls-5" d="M136.18,151.22a8.53,8.53,0,1,0,12,.23A8.52,8.52,0,0,0,136.18,151.22Zm9.31,9.68a4.9,4.9,0,1,1,.13-6.94A4.91,4.91,0,0,1,145.49,160.9Z"/><path class="cls-5" d="M131.05,64.89a8.53,8.53,0,1,0,12.06.23A8.53,8.53,0,0,0,131.05,64.89Zm9.31,9.68a4.9,4.9,0,1,1,.14-6.94A4.91,4.91,0,0,1,140.36,74.57Z"/><path class="cls-6" d="M105.69,141.41c-3.75-3.41-2.36-9.63-.49-13,3.57-6.38,11.31-6.65,11.81-6.66,4.48-.08,10.32,2,12.62,7.13.22.5,2.84,6.61-1,10.9-3,3.38-7.67,3-8.24,2.92l3.37,6.58-11.63.41,2.32-6.64C113.87,143.22,108.94,144.38,105.69,141.41Z"/></svg>